<svg xmlns="http://www.w3.org/2000/svg" width="191" height="19" viewBox="0 0 191 19">
  <path fill-rule="evenodd" d="M.522 9.6c.024-5.712 4.344-8.592 8.616-8.592 3.48 0 7.248 1.896 7.896 6.384H12.81c-.6-1.704-1.872-2.472-3.672-2.472-2.52 0-4.176 1.896-4.176 4.68 0 2.472 1.632 4.632 4.176 4.656 1.824 0 3.288-.912 3.744-2.712h4.224c-.624 4.752-4.392 6.624-7.968 6.624C4.866 18.192.546 15.312.522 9.6zm14.04 3.456h-.288c-1.056 2.04-2.904 3.024-5.136 3.024-3.096 0-6.264-2.304-6.264-6.48 0-4.2 3.168-6.528 6.264-6.528 2.16 0 3.984.912 5.04 2.784h.288c-1.104-1.992-3.072-3-5.328-3-3.24 0-6.504 2.376-6.504 6.744 0 4.344 3.264 6.744 6.504 6.72 2.304 0 4.416-1.152 5.424-3.264zM34.756 1.2V18h-4.392v-6.744H25.18V18h-4.392V1.2h4.392v6.096h5.184V1.2h4.392zM22.828 16.368h.264V9.432h9.36v6.936h.24V2.808h-.24v6.336h-9.36V2.808h-.264v13.56zM46.79 3.24c4.992 0 5.064 7.752 0 7.752h-5.16V3.24h5.16zm-5.16 8.016h5.16c.168 0 .336-.024.48-.024l3.12 5.184h.288l-2.424-3.96-.72-1.272c4.536-.744 4.392-8.16-.744-8.16h-5.4v13.368h.24v-5.136zm8.688.792l3.288 5.328V18h-4.8l-2.88-4.944h-2.232V18h-4.296V1.2h7.368c6.6.024 7.8 7.968 3.552 10.848zm-3.552-2.856c2.328 0 2.448-4.128 0-4.152-1.008-.024-2.064 0-3.072 0v4.152h3.072zm10.881.432c0 9.024 13.032 9.024 13.032 0s-13.032-9-13.032 0zm15.12 0c0-11.616-17.232-11.616-17.232 0 0 11.64 17.232 11.64 17.232 0zm-12.816 0c0 6.096 8.424 6.096 8.424 0 0-6.048-8.424-6.048-8.424 0zm10.488 0c0-8.592-12.552-8.76-12.552 0 0 8.784 12.552 8.616 12.552 0zm18.85 8.4l-8.472-8.28V18h-4.44V1.128h1.56l8.496 8.304V1.2h4.392v16.824h-1.536zM78.417 4.584v11.76h.288V4.992c1.68 1.608 3.36 3.264 4.992 4.872 1.608 1.584 3.216 3.144 4.872 4.752h.192V2.832h-.264v11.376c-1.68-1.656-3.336-3.312-5.04-4.896a296.213 296.213 0 0 0-4.776-4.728h-.264zm19.81 11.424h-2.545v.24h5.28v-.24h-2.496V3.216h2.304v-.24h-4.872v.24h2.328v12.792zm2.231-1.776h2.136V18h-8.52v-3.768h2.136V4.944h-1.968V1.2h8.184v3.744h-1.968v9.288zm4.306-4.632c.024-5.712 4.344-8.592 8.616-8.592 3.48 0 7.248 1.896 7.896 6.384h-4.224c-.6-1.704-1.872-2.472-3.672-2.472-2.52 0-4.176 1.896-4.176 4.68 0 2.472 1.632 4.632 4.176 4.656 1.824 0 3.288-.912 3.744-2.712h4.224c-.624 4.752-4.392 6.624-7.968 6.624-4.272.024-8.592-2.856-8.616-8.568zm14.04 3.456h-.288c-1.056 2.04-2.904 3.024-5.136 3.024-3.096 0-6.264-2.304-6.264-6.48 0-4.2 3.168-6.528 6.264-6.528 2.16 0 3.984.912 5.04 2.784h.288c-1.104-1.992-3.072-3-5.328-3-3.24 0-6.504 2.376-6.504 6.744 0 4.344 3.264 6.744 6.504 6.72 2.304 0 4.416-1.152 5.424-3.264zM129.302 1.2v12.936h6.096V18h-10.416V1.2h4.32zm4.464 14.976v-.216h-6.48V2.832h-.264v13.344h6.744zm6.97-13.2v13.248h7.055v-.24H141V9.432h6.096v-.24H141V3.216h6.576v-.24h-6.84zm8.471-1.776v3.84h-6.216v2.376h5.712v3.816h-5.712v2.952h6.432V18H138.72V1.2h10.488zm5.506 16.944c-1.344 0-2.4-.864-2.4-2.184 0-1.344 1.056-2.232 2.4-2.232 1.296 0 2.352.888 2.352 2.232 0 1.32-1.056 2.184-2.352 2.184zm0-1.224c-.624 0-1.104-.336-1.104-.96 0-.624.48-.984 1.104-.984.576 0 1.056.36 1.056.984s-.48.96-1.056.96zm0 .216c.672 0 1.272-.432 1.272-1.176s-.6-1.152-1.272-1.152c-.72 0-1.296.408-1.296 1.152s.576 1.176 1.296 1.176zm13.33-13.896c4.991 0 5.063 7.752 0 7.752h-5.16V3.24h5.16zm-5.16 8.016h5.16c.167 0 .335-.024.48-.024l3.12 5.184h.287l-2.424-3.96-.72-1.272c4.536-.744 4.392-8.16-.744-8.16h-5.4v13.368h.24v-5.136zm8.687.792l3.288 5.328V18h-4.8l-2.88-4.944h-2.232V18h-4.296V1.2h7.368c6.6.024 7.8 7.968 3.552 10.848zm-3.552-2.856c2.328 0 2.448-4.128 0-4.152-1.008-.024-2.064 0-3.072 0v4.152h3.072zm12.778 3.672c0 2.136 5.256 2.088 5.256.12 0-1.176-1.392-1.368-3.072-1.464-3.648-.264-6.048-1.512-6.096-5.16-.144-7.248 12.912-7.248 12.816 0h-4.08c0-2.232-4.512-2.04-4.656-.048-.096 1.272 1.152 1.536 2.664 1.704 3.336.36 6.6.792 6.6 4.992 0 7.056-13.68 7.248-13.584-.144h4.152zm6.312-8.04h.312c-1.8-3.384-8.736-2.52-8.64 1.536.072 2.88 2.088 3.312 4.536 3.504 2.328.168 4.656.216 4.656 3.12 0 3.72-6.768 4.464-8.664 1.416h-.288c1.728 3.432 9.216 2.664 9.216-1.416 0-2.976-2.424-3.192-4.872-3.384-2.352-.168-4.296-.552-4.296-3.24-.024-3.768 6.24-4.536 8.04-1.536z"/>
</svg>