<svg xmlns="http://www.w3.org/2000/svg" width="320" height="205" viewBox="0 0 196 126">
    <title>Chronicle.rs Logo</title>
  <desc>Created with Sketch by Pascal Hertleif, adapted from a logo created by Vilmosvarga for Freepik.com</desc>
  <g fill="none" fill-rule="evenodd">
    <path fill="#000" d="M97.968 117.42c.025-.202.062-.486.112-.852a6.7 6.7 0 0 0 .073-.849c0-.329-.062-.58-.185-.757-.074-.076-.219-.094-.429-.057-.21.039-.39.12-.539.245-.198-.2-.423-.3-.669-.3a.35.35 0 0 0-.261.112.592.592 0 0 0-.15.321 3.03 3.03 0 0 0-.037.512c0 .175.012.376.036.603.025.227.076.6.15 1.114.074.518.236 1.23.485 2.139l.446 1.548c.248-.932.433-1.611.558-2.04.224-.858.36-1.438.41-1.74zm-5.852-.7c-.812.746-1.843 1.12-3.086 1.12-.769 0-1.378-.196-1.83-.586-.363-.298-.544-.654-.544-1.067 0-.323.079-.587.237-.794.16-.205.384-.285.68-.24.203.022.434.32.695.897.259.572.773.86 1.542.86.701 0 1.334-.276 1.9-.827.679-.643 1.017-1.483 1.017-2.515 0-1.791-.65-3.186-1.95-4.186-1.3-.999-3.091-1.5-5.376-1.5-.793 0-1.52.087-2.188.258a8.59 8.59 0 0 0-1.95.777 6.336 6.336 0 0 1 2.646 1.758c.723.802 1.085 1.63 1.085 2.48 0 .872-.26 1.608-.78 2.205-.678.78-1.729 1.171-3.154 1.171-.769 0-1.415-.23-1.935-.689-.52-.46-.78-.988-.78-1.585 0-.575.2-1.051.595-1.429.395-.38.9-.568 1.509-.568.362 0 .713.102 1.052.308.339.206.508.447.508.724 0 .366-.147.553-.44.553-.25 0-.373-.232-.373-.69 0-.367-.25-.551-.747-.551-.815 0-1.22.527-1.22 1.585 0 .733.259 1.284.78 1.653.36.253.78.38 1.254.38.746 0 1.34-.282 1.782-.846.44-.561.66-1.382.66-2.463 0-.804-.351-1.584-1.05-2.344-.59-.618-1.246-1.068-1.968-1.342-.678.343-1.538.93-2.578 1.757-.43.345-1.288 1.068-2.578 2.17-.813.666-1.47 1.173-1.967 1.515-.724.506-1.339.857-1.848 1.052-.51.195-.95.332-1.323.414a5.4 5.4 0 0 1-1.135.118h-.407c-.477 0-.692-.182-.646-.55.022-.137.08-.223.169-.257.091-.034.272-.053.543-.053.158 0 .454.012.882.036 1.651 0 3.505-.909 5.563-2.722 1.153-.989 1.979-1.666 2.476-2.032.995-.76 1.807-1.312 2.442-1.655-.475-.161-.792-.253-.95-.276-.158-.024-.508-.034-1.052-.034h-.472c-.59 0-1.336.263-2.24.791-.543.322-1.992 1.368-4.343 3.137-1.22.918-2.284 1.62-3.187 2.1-1.2.622-2.25.93-3.154.93-1.516 0-2.687-.316-3.51-.945-.827-.634-1.24-1.476-1.24-2.533 0-.78.24-1.459.714-2.033.587-.713 1.47-1.068 2.645-1.068.655 0 1.232.195 1.729.586.498.39.746.837.746 1.345 0 .618-.18 1.09-.542 1.41-.362.322-.814.483-1.357.483-.384 0-.576-.15-.576-.448 0-.298.192-.449.576-.449.475 0 .835-.05 1.086-.154.25-.103.373-.374.373-.81 0-.413-.175-.764-.526-1.051-.35-.287-.854-.43-1.509-.43-.588 0-1.097.23-1.525.69-.431.458-.646 1.136-.646 2.03 0 .851.254 1.557.763 2.121.508.561 1.283.845 2.323.845.679 0 1.504-.356 2.476-1.068.905-.735 1.82-1.46 2.748-2.173 1.831-1.377 3.131-2.263 3.9-2.653 1.448-.735 3.053-1.101 4.816-1.101a6.3 6.3 0 0 1 1.204.121c.42.079.832.189 1.239.327.949-.437 1.492-.679 1.628-.724a9.008 9.008 0 0 1 2.984-.48c2.532 0 4.488.566 5.867 1.703 1.38 1.138 2.07 2.59 2.07 4.359 0 1.354-.406 2.406-1.222 3.152zm8.546-3.152c0-1.768.69-3.221 2.07-4.36 1.378-1.136 3.335-1.702 5.867-1.702 1.063 0 2.057.158 2.984.48.137.045.679.287 1.628.724a9.025 9.025 0 0 1 1.239-.327 6.3 6.3 0 0 1 1.204-.121c1.764 0 3.369.366 4.814 1.101.771.39 2.07 1.276 3.9 2.653.93.712 1.845 1.438 2.75 2.173.973.712 1.797 1.068 2.476 1.068 1.04 0 1.815-.284 2.322-.845.51-.564.764-1.27.764-2.12 0-.895-.215-1.573-.646-2.032-.429-.459-.937-.69-1.525-.69-.655 0-1.158.144-1.51.43-.35.288-.525.639-.525 1.052 0 .436.123.707.372.81.25.104.612.154 1.088.154.383 0 .575.151.575.45 0 .297-.192.447-.575.447-.544 0-.996-.161-1.359-.482-.361-.322-.541-.793-.541-1.411 0-.508.248-.955.745-1.345a2.719 2.719 0 0 1 1.73-.586c1.177 0 2.058.355 2.646 1.068.473.574.712 1.253.712 2.033 0 1.057-.412 1.899-1.239 2.533-.823.629-1.994.946-3.51.946-.904 0-1.955-.309-3.155-.93-.903-.482-1.965-1.183-3.187-2.101-2.35-1.769-3.798-2.815-4.342-3.137-.904-.528-1.65-.791-2.24-.791h-.47c-.546 0-.896.01-1.054.034-.158.023-.475.115-.95.276.634.343 1.447.895 2.442 1.655.497.366 1.323 1.043 2.476 2.032 2.058 1.813 3.912 2.722 5.563 2.722.429-.024.723-.036.882-.036.271 0 .453.02.543.053.09.034.146.12.168.257.048.368-.168.55-.644.55h-.407c-.384 0-.763-.038-1.136-.118a9.49 9.49 0 0 1-1.324-.414c-.508-.195-1.124-.546-1.849-1.052-.495-.342-1.153-.85-1.966-1.514a136.047 136.047 0 0 0-2.577-2.171c-1.04-.827-1.9-1.414-2.578-1.757-.724.274-1.38.724-1.966 1.342-.7.76-1.052 1.54-1.052 2.344 0 1.08.22 1.902.66 2.463.441.564 1.035.845 1.782.845.474 0 .893-.126 1.254-.379.52-.369.78-.92.78-1.653 0-1.058-.406-1.585-1.22-1.585-.496 0-.747.184-.747.55 0 .459-.124.69-.374.69-.292 0-.44-.186-.44-.552 0-.277.17-.518.509-.724a2 2 0 0 1 1.053-.308c.608 0 1.112.187 1.508.568.395.378.594.854.594 1.43 0 .596-.26 1.124-.78 1.584-.52.458-1.165.69-1.935.69-1.424 0-2.475-.392-3.153-1.172-.52-.597-.78-1.333-.78-2.205 0-.85.361-1.678 1.085-2.48a6.34 6.34 0 0 1 2.646-1.758 8.59 8.59 0 0 0-1.95-.777 8.806 8.806 0 0 0-2.188-.257c-2.285 0-4.076.5-5.375 1.5-1.301.999-1.95 2.394-1.95 4.185 0 1.032.338 1.872 1.017 2.515.565.551 1.198.828 1.899.828.769 0 1.283-.289 1.542-.861.26-.577.492-.875.696-.898.295-.044.52.036.68.24.157.208.236.472.236.795 0 .413-.18.77-.544 1.067-.45.39-1.061.587-1.831.587-1.242 0-2.273-.375-3.086-1.121-.814-.746-1.22-1.798-1.22-3.152zm72.338-6.96c0 .53-.05.856-.148.983-.1.126-.272.189-.522.189-.444 0-.669-.303-.669-.908H98.153c0 .53-.05.952-.147 1.266-.1.315-.323.7-.67 1.154.298 0 .563.032.798.093.237.064.356.223.356.474 0 .176-.113.309-.337.397a2.24 2.24 0 0 1-.817.133c0 .226.371 1.033 1.115 2.419.447.807.763 1.65.95 2.532.186.883.452 1.564.8 2.043.52.704 1.253 1.057 2.196 1.057-.175.556-.348.963-.523 1.23-.171.263-.459.471-.855.623-.124.05-.323.076-.595.076-.62 0-1.117-.127-1.489-.378 0 .73-.043 1.291-.13 1.68a14.25 14.25 0 0 1-.242.965c-.148.63-.446 1.373-.892 2.23-.15.278-.374.655-.67 1.134a26.86 26.86 0 0 1-.634-1.096c-.472-.882-.776-1.613-.913-2.193l-.24-1.021c-.1-.428-.15-.995-.15-1.699a2.589 2.589 0 0 1-1.45.414c-.2 0-.4-.036-.597-.112-.373-.152-.657-.365-.856-.642-.197-.279-.36-.681-.483-1.211 1.041 0 1.798-.353 2.269-1.057.323-.454.558-1.178.707-2.176.15-.994.634-2.147 1.452-3.458.349-.553.523-.969.523-1.248-.448-.1-.71-.163-.784-.189-.222-.1-.335-.25-.335-.453 0-.38.373-.567 1.119-.567-.523-.78-.784-1.587-.784-2.42H22.338c0 .605-.223.908-.67.908-.272 0-.453-.102-.539-.303-.087-.2-.129-.49-.129-.869 0-.53.049-.856.148-.983.098-.125.272-.188.52-.188.199 0 .36.051.485.15.124.101.185.34.185.719h73.507c0-.379.111-.794.336-1.25.225-.452.497-.805.82-1.056.322.25.593.604.818 1.057.223.455.334.87.334 1.249h73.508c0-.58.225-.87.669-.87.273 0 .454.101.541.303.085.2.129.491.129.87zM22.602 93.344h-.864V98h-.672v-4.656h-.66v-.564h.66V88.4h1.536c.6 0 1.068.48 1.068 1.08v2.796c0 .588-.468 1.068-1.068 1.068zm-.864-4.368v3.804h.804a.477.477 0 0 0 .468-.468v-2.868a.469.469 0 0 0-.468-.468h-.804zM28.34 98h-.744c-.132-.084-.168-.252-.168-.468v-3.12a.477.477 0 0 0-.468-.468h-.804V98h-.672v-4.056h-.66v-.564h.66V89.6h1.536c.6 0 1.068.48 1.068 1.08v2.148c0 .348-.084.672-.468.84.384.156.468.492.468.84v2.688c0 .408.06.564.252.804zm-2.184-7.824v3.204h.804a.477.477 0 0 0 .468-.468v-2.268a.469.469 0 0 0-.468-.468h-.804zm4.599 3.768v3.528h1.332V98h-2.004v-4.056h-.672v-.564h.672V89.6h2.004v.576h-1.332v3.204h1.272v.564h-1.272zM33.6 91.82v-1.008c0-.72.588-1.308 1.308-1.308.708 0 1.296.588 1.296 1.308V92.6h-.672v-1.896a.63.63 0 1 0-1.26 0v1.248c0 .348.12.564.348.828l1.08 1.32c.3.36.504.732.504 1.392V96.8c0 .72-.588 1.308-1.296 1.308-.72 0-1.308-.588-1.308-1.308v-1.764h.672v1.872c0 .348.276.624.636.624a.62.62 0 0 0 .624-.624V95.36c0-.348-.12-.564-.348-.84l-1.08-1.32c-.3-.348-.504-.732-.504-1.38zm5.15 2.124v3.528h1.333V98H38.08v-4.056h-.672v-.564h.672V89.6h2.004v.576h-1.332v3.204h1.272v.564h-1.272zM44.815 98h-.744c-.132-.084-.168-.252-.168-.468v-3.12a.477.477 0 0 0-.468-.468h-.804V98h-.672v-4.056h-.66v-.564h.66V89.6h1.536c.6 0 1.068.48 1.068 1.08v2.148c0 .348-.084.672-.468.84.384.156.468.492.468.84v2.688c0 .408.06.564.252.804zm-2.184-7.824v3.204h.804a.477.477 0 0 0 .468-.468v-2.268a.469.469 0 0 0-.468-.468h-.804zM47.66 98h-.432l-1.272-8.4h.684l.804 5.784.816-5.784h.672L47.66 98zm3.579 0h-.672v-8.4h.672V98zm2.786-8.4v.36c.192-.276.504-.456.864-.456.6 0 1.08.48 1.08 1.068V98h-.672v-7.296a.64.64 0 0 0-.636-.636.64.64 0 0 0-.636.636V98h-.672v-8.4h.672zm5.69 7.308v-2.136h-.66v-.576h1.333V96.8a1.3 1.3 0 0 1-1.296 1.308c-.72 0-1.308-.588-1.308-1.308v-5.988c0-.72.588-1.308 1.308-1.308a1.3 1.3 0 0 1 1.296 1.308v1.512h-.672v-1.62a.63.63 0 1 0-1.26 0v6.204c0 .348.276.624.636.624a.62.62 0 0 0 .624-.624zM68.086 98h-.745c-.132-.084-.168-.252-.168-.468v-3.72a.477.477 0 0 0-.468-.468H65.9V98h-.672v-4.656h-.66v-.564h.66V88.4h1.536c.6 0 1.068.48 1.068 1.08v2.748c0 .348-.084.672-.468.84.384.156.468.492.468.84v3.288c0 .408.06.564.252.804zM65.9 88.976v3.804h.804a.477.477 0 0 0 .468-.468v-2.868a.469.469 0 0 0-.468-.468H65.9zm3.747.624h.672v7.308a.62.62 0 0 0 .624.624c.36 0 .636-.276.636-.624V89.6h.672v7.2c0 .72-.588 1.308-1.308 1.308a1.309 1.309 0 0 1-1.296-1.308v-7.2zm4.298 2.22v-1.008c0-.72.588-1.308 1.308-1.308.708 0 1.296.588 1.296 1.308V92.6h-.672v-1.896a.63.63 0 1 0-1.26 0v1.248c0 .348.12.564.348.828l1.08 1.32c.3.36.504.732.504 1.392V96.8c0 .72-.588 1.308-1.296 1.308-.72 0-1.308-.588-1.308-1.308v-1.764h.672v1.872c0 .348.276.624.636.624a.62.62 0 0 0 .624-.624V95.36c0-.348-.12-.564-.348-.84l-1.08-1.32c-.3-.348-.504-.732-.504-1.38zM78.784 98v-7.824h-1.2V89.6h3.072v.576h-1.2V98h-.672zm3.146-9.6h.708l-.516 2.544h-.408l.216-2.544zm2.414 3.42v-1.008c0-.72.588-1.308 1.308-1.308.708 0 1.296.588 1.296 1.308V92.6h-.672v-1.896a.63.63 0 1 0-1.26 0v1.248c0 .348.12.564.348.828l1.08 1.32c.3.36.504.732.504 1.392V96.8c0 .72-.588 1.308-1.296 1.308-.72 0-1.308-.588-1.308-1.308v-1.764h.672v1.872c0 .348.276.624.636.624a.62.62 0 0 0 .624-.624V95.36c0-.348-.12-.564-.348-.84l-1.08-1.32c-.3-.348-.504-.732-.504-1.38zm6.725.96h.66V88.4h.672v4.38h1.272V88.4h.66V98h-.66v-4.656h-1.272V98h-.672v-4.656h-.66v-.564zM97.12 98h-.671v-8.4h.672V98zm1.875-6.18v-1.008c0-.72.588-1.308 1.308-1.308.708 0 1.296.588 1.296 1.308V92.6h-.672v-1.896a.63.63 0 1 0-1.26 0v1.248c0 .348.12.564.348.828l1.08 1.32c.3.36.504.732.504 1.392V96.8c0 .72-.588 1.308-1.296 1.308-.72 0-1.308-.588-1.308-1.308v-1.764h.672v1.872c0 .348.276.624.636.624a.62.62 0 0 0 .624-.624V95.36c0-.348-.12-.564-.348-.84l-1.08-1.32c-.3-.348-.504-.732-.504-1.38zm4.838 6.18v-7.824h-1.2V89.6h3.072v.576h-1.2V98h-.672zm3.027-1.2v-5.988c0-.72.588-1.308 1.308-1.308a1.3 1.3 0 0 1 1.296 1.308V96.8a1.3 1.3 0 0 1-1.296 1.308c-.72 0-1.308-.588-1.308-1.308zm.672-6.096v6.204a.63.63 0 0 0 .636.624.63.63 0 0 0 .636-.624v-6.204a.64.64 0 0 0-.636-.636.64.64 0 0 0-.636.636zM114.313 98h-.744c-.132-.084-.168-.252-.168-.468v-3.12a.477.477 0 0 0-.468-.468h-.804V98h-.672v-4.056h-.66v-.564h.66V89.6h1.536c.6 0 1.068.48 1.068 1.08v2.148c0 .348-.084.672-.468.84.384.156.468.492.468.84v2.688c0 .408.06.564.252.804zm-2.184-7.824v3.204h.804a.477.477 0 0 0 .468-.468v-2.268a.469.469 0 0 0-.468-.468h-.804zm5.139 4.62V98h-.672v-3.204l-.396-.516c-.156-.204-.504-.54-.504-1.392V89.6h.672v3.456c0 .348.048.564.276.864l.288.384.288-.384c.228-.3.276-.516.276-.864V89.6h.672v3.288c0 .852-.288 1.092-.504 1.392l-.396.516zm5.32-2.976v-1.008c0-.72.588-1.308 1.308-1.308.708 0 1.296.588 1.296 1.308V92.6h-.672v-1.896a.63.63 0 1 0-1.26 0v1.248c0 .348.12.564.348.828l1.08 1.32c.3.36.504.732.504 1.392V96.8c0 .72-.588 1.308-1.296 1.308-.72 0-1.308-.588-1.308-1.308v-1.764h.672v1.872c0 .348.276.624.636.624a.62.62 0 0 0 .624-.624V95.36c0-.348-.12-.564-.348-.84l-1.08-1.32c-.3-.348-.504-.732-.504-1.38zm5.15 6.18h-.671v-8.4h.672V98zm2.787-8.4v.36c.192-.276.504-.456.864-.456.6 0 1.08.48 1.08 1.068V98h-.672v-7.296a.64.64 0 0 0-.636-.636.64.64 0 0 0-.636.636V98h-.672v-8.4h.672zm4.43 1.104v6.204a.63.63 0 0 0 .637.624.63.63 0 0 0 .636-.624v-2.172h.66V96.8a1.3 1.3 0 0 1-1.296 1.308c-.72 0-1.308-.588-1.308-1.308v-5.988c0-.72.588-1.308 1.308-1.308a1.3 1.3 0 0 1 1.296 1.308v1.596h-.66v-1.704a.64.64 0 0 0-.636-.636.64.64 0 0 0-.636.636zm4.479 3.24v3.528h1.332V98h-2.004v-4.056h-.672v-.564h.672V89.6h2.004v.576h-1.332v3.204h1.272v.564h-1.272zM146.219 98h-.672v-8.4h.672V98zm3.746-4.188a.469.469 0 0 0-.468-.468h-.672v-.564h.672a.469.469 0 0 0 .468-.468v-2.808a.64.64 0 0 0-.636-.636.64.64 0 0 0-.636.636V90.8h-.66v-1.188a1.3 1.3 0 0 1 1.296-1.308c.72 0 1.308.588 1.308 1.308v2.616c0 .348-.096.672-.48.84.384.156.48.492.48.84V96.8c0 .72-.588 1.308-1.308 1.308a1.3 1.3 0 0 1-1.296-1.308v-1.656h.66v1.764a.63.63 0 0 0 .636.624.63.63 0 0 0 .636-.624v-3.096zm3.039 2.4v1.224h1.932V98h-2.604v-1.392c0-.96.204-1.5.504-2.016l1.092-1.92c.228-.396.348-.708.348-1.224v-1.944a.64.64 0 0 0-.636-.636.64.64 0 0 0-.636.636V91.4h-.672v-1.788c0-.72.588-1.308 1.308-1.308a1.3 1.3 0 0 1 1.296 1.308v1.44c0 .96-.204 1.5-.492 2.028L153.352 95c-.228.396-.348.708-.348 1.212zm3.746 1.224h.66V98h-.66v-.564zm0-4.656h.66v.564h-.66v-.564zm2.654 4.656h.66V98h-.66v-.564zm0-4.656h.66v.564h-.66v-.564zm3.327-4.38v.252c.132-.204.396-.348.72-.348.348 0 .6.132.768.348.156-.192.396-.348.828-.348.576 0 1.056.396 1.056 1.008V98h-.672v-8.592c0-.3-.156-.54-.504-.54s-.504.24-.504.54V98h-.66v-8.568c0-.312-.156-.54-.504-.54s-.528.228-.528.54V98h-.672v-9.6h.672zm6.098 9.6h-.672v-9.6h.672V98zm2.787-9.6v.36c.192-.276.504-.456.864-.456.6 0 1.08.48 1.08 1.068V98h-.672v-8.496a.64.64 0 0 0-.636-.636.64.64 0 0 0-.636.636V98h-.672v-9.6h.672zM15 80.5c0 .62-.34 1.026-1.013 1.215-.676.19-1.568.285-2.68.285h-.951c-1.628 0-3.552-.206-5.773-.62A176.946 176.946 0 0 1 0 80.5c.713-.103 1.805-.31 3.272-.62C6.13 79.291 8.49 79 10.356 79h1.13c1.11 0 1.974.097 2.589.285.616.19.925.594.925 1.216m166.925-1.216c.615-.188 1.477-.285 2.586-.285h1.134c1.866 0 4.226.292 7.082.88 1.468.31 2.559.517 3.273.62-1.507.31-3.036.604-4.583.88-2.22.414-4.145.62-5.772.62h-.954c-1.11 0-2.002-.096-2.678-.285-.674-.19-1.013-.595-1.013-1.214 0-.622.308-1.026.925-1.216m-3.157-.692c-.154-.394-.52-.593-1.097-.593-.501 0-.849.165-1.04.502-.193.331-.288.79-.288 1.372H18.657c0-.583-.096-1.04-.288-1.372-.194-.337-.54-.502-1.04-.502-.577 0-.943.2-1.097.593-.154.397-.232 1.032-.232 1.908 0 .582.059 1.147.175 1.688.114.543.5.811 1.153.811.886 0 1.329-.644 1.329-1.938h157.686c0 1.294.443 1.938 1.328 1.938.654 0 1.04-.268 1.153-.811.115-.54.176-1.106.176-1.688 0-.876-.079-1.51-.232-1.908M2.522 61.6c.024-5.712 4.344-8.592 8.616-8.592 3.48 0 7.248 1.896 7.896 6.384H14.81c-.6-1.704-1.872-2.472-3.672-2.472-2.52 0-4.176 1.896-4.176 4.68 0 2.472 1.632 4.632 4.176 4.656 1.824 0 3.288-.912 3.744-2.712h4.224c-.624 4.752-4.392 6.624-7.968 6.624-4.272.024-8.592-2.856-8.616-8.568zm14.04 3.456h-.288c-1.056 2.04-2.904 3.024-5.136 3.024-3.096 0-6.264-2.304-6.264-6.48 0-4.2 3.168-6.528 6.264-6.528 2.16 0 3.984.912 5.04 2.784h.288c-1.104-1.992-3.072-3-5.328-3-3.24 0-6.504 2.376-6.504 6.744 0 4.344 3.264 6.744 6.504 6.72 2.304 0 4.416-1.152 5.424-3.264zM36.756 53.2V70h-4.392v-6.744H27.18V70h-4.392V53.2h4.392v6.096h5.184V53.2h4.392zM24.828 68.368h.264v-6.936h9.36v6.936h.24v-13.56h-.24v6.336h-9.36v-6.336h-.264v13.56zM48.79 55.24c4.992 0 5.064 7.752 0 7.752h-5.16V55.24h5.16zm-5.16 8.016h5.16c.168 0 .336-.024.48-.024l3.12 5.184h.288l-2.424-3.96-.72-1.272c4.536-.744 4.392-8.16-.744-8.16h-5.4v13.368h.24v-5.136zm8.688.792l3.288 5.328V70h-4.8l-2.88-4.944h-2.232V70h-4.296V53.2h7.368c6.6.024 7.8 7.968 3.552 10.848zm-3.552-2.856c2.328 0 2.448-4.128 0-4.152-1.008-.024-2.064 0-3.072 0v4.152h3.072zm10.881.432c0 9.024 13.032 9.024 13.032 0s-13.032-9-13.032 0zm15.12 0c0-11.616-17.232-11.616-17.232 0 0 11.64 17.232 11.64 17.232 0zm-12.816 0c0 6.096 8.424 6.096 8.424 0 0-6.048-8.424-6.048-8.424 0zm10.488 0c0-8.592-12.552-8.76-12.552 0 0 8.784 12.552 8.616 12.552 0zm18.85 8.4l-8.472-8.28V70h-4.44V53.128h1.56l8.496 8.304V53.2h4.392v16.824h-1.536zm-10.872-13.44v11.76h.288V56.992c1.68 1.608 3.36 3.264 4.992 4.872 1.608 1.584 3.216 3.144 4.872 4.752h.192V54.832h-.264v11.376c-1.68-1.656-3.336-3.312-5.04-4.896a296.213 296.213 0 0 0-4.776-4.728h-.264zm19.81 11.424h-2.545v.24h5.28v-.24h-2.496V55.216h2.304v-.24h-4.872v.24h2.328v12.792zm2.231-1.776h2.136V70h-8.52v-3.768h2.136v-9.288h-1.968V53.2h8.184v3.744h-1.968v9.288zm4.306-4.632c.024-5.712 4.344-8.592 8.616-8.592 3.48 0 7.248 1.896 7.896 6.384h-4.224c-.6-1.704-1.872-2.472-3.672-2.472-2.52 0-4.176 1.896-4.176 4.68 0 2.472 1.632 4.632 4.176 4.656 1.824 0 3.288-.912 3.744-2.712h4.224c-.624 4.752-4.392 6.624-7.968 6.624-4.272.024-8.592-2.856-8.616-8.568zm14.04 3.456h-.288c-1.056 2.04-2.904 3.024-5.136 3.024-3.096 0-6.264-2.304-6.264-6.48 0-4.2 3.168-6.528 6.264-6.528 2.16 0 3.984.912 5.04 2.784h.288c-1.104-1.992-3.072-3-5.328-3-3.24 0-6.504 2.376-6.504 6.744 0 4.344 3.264 6.744 6.504 6.72 2.304 0 4.416-1.152 5.424-3.264zM131.302 53.2v12.936h6.096V70h-10.416V53.2h4.32zm4.464 14.976v-.216h-6.48V54.832h-.264v13.344h6.744zm6.97-13.2v13.248h7.055v-.24H143v-6.552h6.096v-.24H143v-5.976h6.576v-.24h-6.84zm8.471-1.776v3.84h-6.216v2.376h5.712v3.816h-5.712v2.952h6.432V70H140.72V53.2h10.488zm5.506 16.944c-1.344 0-2.4-.864-2.4-2.184 0-1.344 1.056-2.232 2.4-2.232 1.296 0 2.352.888 2.352 2.232 0 1.32-1.056 2.184-2.352 2.184zm0-1.224c-.624 0-1.104-.336-1.104-.96 0-.624.48-.984 1.104-.984.576 0 1.056.36 1.056.984s-.48.96-1.056.96zm0 .216c.672 0 1.272-.432 1.272-1.176s-.6-1.152-1.272-1.152c-.72 0-1.296.408-1.296 1.152s.576 1.176 1.296 1.176zm13.33-13.896c4.991 0 5.063 7.752 0 7.752h-5.16V55.24h5.16zm-5.16 8.016h5.16c.167 0 .335-.024.48-.024l3.12 5.184h.287l-2.424-3.96-.72-1.272c4.536-.744 4.392-8.16-.744-8.16h-5.4v13.368h.24v-5.136zm8.687.792l3.288 5.328V70h-4.8l-2.88-4.944h-2.232V70h-4.296V53.2h7.368c6.6.024 7.8 7.968 3.552 10.848zm-3.552-2.856c2.328 0 2.448-4.128 0-4.152-1.008-.024-2.064 0-3.072 0v4.152h3.072zm12.778 3.672c0 2.136 5.256 2.088 5.256.12 0-1.176-1.392-1.368-3.072-1.464-3.648-.264-6.048-1.512-6.096-5.16-.144-7.248 12.912-7.248 12.816 0h-4.08c0-2.232-4.512-2.04-4.656-.048-.096 1.272 1.152 1.536 2.664 1.704 3.336.36 6.6.792 6.6 4.992 0 7.056-13.68 7.248-13.584-.144h4.152zm6.312-8.04h.312c-1.8-3.384-8.736-2.52-8.64 1.536.072 2.88 2.088 3.312 4.536 3.504 2.328.168 4.656.216 4.656 3.12 0 3.72-6.768 4.464-8.664 1.416h-.288c1.728 3.432 9.216 2.664 9.216-1.416 0-2.976-2.424-3.192-4.872-3.384-2.352-.168-4.296-.552-4.296-3.24-.024-3.768 6.24-4.536 8.04-1.536zM72 30.134c0 1.71-.684 3.117-2.056 4.217-1.37 1.1-3.315 1.649-5.83 1.649a9.2 9.2 0 0 1-2.967-.466c-.135-.044-.675-.278-1.618-.7-.405.135-.814.24-1.231.317a6.556 6.556 0 0 1-1.197.116c-1.753 0-3.347-.354-4.785-1.065-.765-.378-2.057-1.234-3.877-2.567-.922-.689-1.831-1.39-2.731-2.101-.966-.689-1.786-1.034-2.462-1.034-1.033 0-1.802.274-2.307.817-.506.545-.76 1.229-.76 2.051 0 .866.214 1.522.642 1.966.426.445.932.667 1.517.667.65 0 1.151-.138 1.5-.416.348-.279.523-.617.523-1.018 0-.421-.124-.684-.371-.782-.25-.1-.608-.15-1.08-.15-.382 0-.572-.145-.572-.435 0-.288.19-.432.572-.432.54 0 .99.156 1.35.467.36.31.537.766.537 1.365 0 .49-.246.923-.741 1.3a2.74 2.74 0 0 1-1.718.567c-1.169 0-2.046-.344-2.629-1.034A2.941 2.941 0 0 1 39 31.467c0-1.022.41-1.838 1.231-2.45.819-.61 1.982-.916 3.49-.916.898 0 1.942.3 3.134.9.897.466 1.954 1.144 3.168 2.033 2.336 1.71 3.775 2.723 4.315 3.034.898.511 1.64.767 2.225.767h.47c.541 0 .89-.011 1.046-.034.156-.022.472-.111.944-.267-.63-.332-1.438-.866-2.427-1.6-.494-.355-1.315-1.011-2.461-1.967-2.044-1.754-3.886-2.633-5.528-2.633-.426.023-.72.034-.877.034-.269 0-.448-.018-.54-.05-.089-.035-.146-.117-.167-.25-.046-.356.168-.533.641-.533h.405a5.6 5.6 0 0 1 1.128.116 9.5 9.5 0 0 1 1.315.4c.506.188 1.117.527 1.837 1.017.494.332 1.146.822 1.956 1.467a138.133 138.133 0 0 0 2.56 2.099c1.034.8 1.89 1.367 2.563 1.7.718-.266 1.37-.7 1.954-1.3.697-.733 1.045-1.489 1.045-2.266 0-1.045-.219-1.84-.656-2.383-.438-.546-1.03-.817-1.77-.817a2.16 2.16 0 0 0-1.247.366c-.519.356-.775.89-.775 1.6 0 1.022.403 1.533 1.212 1.533.494 0 .743-.178.743-.532 0-.445.123-.668.37-.668.292 0 .438.18.438.534 0 .267-.168.5-.505.7-.337.2-.686.3-1.046.3-.606 0-1.106-.182-1.499-.55a1.808 1.808 0 0 1-.591-1.384c0-.578.258-1.088.775-1.533.517-.444 1.158-.667 1.922-.667 1.417 0 2.461.378 3.135 1.134.517.578.775 1.288.775 2.134 0 .821-.36 1.623-1.078 2.399a6.313 6.313 0 0 1-2.63 1.7 8.58 8.58 0 0 0 1.939.751 8.946 8.946 0 0 0 2.174.248c2.27 0 4.05-.482 5.343-1.45 1.291-.966 1.938-2.316 1.938-4.049 0-1-.336-1.812-1.012-2.432-.561-.534-1.19-.802-1.887-.802-.765 0-1.276.278-1.533.834-.26.556-.488.844-.691.867-.294.043-.517-.034-.676-.233-.156-.2-.235-.455-.235-.769 0-.399.18-.743.54-1.031.45-.377 1.055-.568 1.82-.568 1.235 0 2.259.363 3.067 1.084.81.723 1.213 1.74 1.213 3.05m52.215-3.05c.807-.72 1.831-1.084 3.067-1.084.765 0 1.37.19 1.818.568.36.288.541.632.541 1.031 0 .314-.079.57-.236.769-.157.2-.383.276-.673.233-.205-.023-.434-.31-.692-.867-.258-.556-.768-.834-1.534-.834-.696 0-1.325.268-1.889.802-.673.62-1.01 1.433-1.01 2.432 0 1.733.647 3.083 1.939 4.05 1.291.967 3.072 1.45 5.343 1.45.785 0 1.51-.083 2.174-.249a8.577 8.577 0 0 0 1.937-.751 6.304 6.304 0 0 1-2.629-1.7c-.72-.776-1.08-1.578-1.08-2.4 0-.845.26-1.555.777-2.133.674-.756 1.719-1.134 3.132-1.134.767 0 1.407.223 1.923.667.518.445.776.955.776 1.533 0 .557-.197 1.017-.59 1.383-.394.369-.893.55-1.5.55-.359 0-.708-.099-1.045-.3-.338-.2-.506-.432-.506-.699 0-.354.147-.534.438-.534.248 0 .37.223.37.668 0 .354.25.532.743.532.808 0 1.213-.511 1.213-1.533 0-.71-.257-1.244-.775-1.6a2.165 2.165 0 0 0-1.247-.366c-.742 0-1.331.27-1.77.817-.439.543-.656 1.338-.656 2.383 0 .777.348 1.533 1.044 2.266.584.6 1.237 1.034 1.955 1.3.674-.333 1.528-.9 2.56-1.7a123.22 123.22 0 0 0 2.563-2.1 32.484 32.484 0 0 1 1.955-1.466c.72-.49 1.331-.829 1.837-1.018a9.488 9.488 0 0 1 1.314-.4 5.598 5.598 0 0 1 1.13-.115h.404c.472 0 .688.177.64.532-.02.134-.077.216-.168.25-.089.033-.27.051-.54.051-.154 0-.449-.011-.875-.034-1.64 0-3.484.879-5.528 2.633-1.146.956-1.966 1.612-2.46 1.967-.99.734-1.798 1.268-2.428 1.6.472.156.788.245.944.267.158.023.505.034 1.045.034h.47c.587 0 1.328-.256 2.226-.767.54-.311 1.978-1.323 4.315-3.034 1.213-.889 2.272-1.567 3.168-2.032 1.192-.6 2.237-.901 3.136-.901 1.505 0 2.668.307 3.487.916.822.612 1.232 1.428 1.232 2.45 0 .755-.237 1.411-.71 1.966-.582.69-1.46 1.034-2.628 1.034a2.746 2.746 0 0 1-1.72-.567c-.492-.377-.74-.81-.74-1.3 0-.599.18-1.055.54-1.365.358-.311.809-.467 1.349-.467.38 0 .571.144.571.432 0 .29-.19.435-.571.435-.475 0-.832.05-1.08.15-.248.098-.37.361-.37.782 0 .4.173.74.52 1.018.35.278.85.416 1.501.416.585 0 1.09-.222 1.517-.667.428-.444.64-1.1.64-1.966 0-.822-.252-1.506-.758-2.05-.504-.544-1.275-.818-2.31-.818-.673 0-1.493.345-2.46 1.034-.898.71-1.81 1.412-2.73 2.1-1.82 1.334-3.112 2.19-3.876 2.568-1.437.71-3.034 1.065-4.786 1.065-.38 0-.78-.04-1.196-.116a9.135 9.135 0 0 1-1.231-.316c-.944.421-1.483.655-1.618.7a9.205 9.205 0 0 1-2.965.465c-2.517 0-4.461-.548-5.833-1.649-1.37-1.1-2.056-2.506-2.056-4.217 0-1.31.404-2.327 1.215-3.05M15 39.5c0 .621-.34 1.025-1.013 1.215-.676.19-1.568.285-2.68.285h-.951c-1.628 0-3.552-.207-5.773-.62A168.233 168.233 0 0 1 0 39.5c.713-.103 1.805-.31 3.272-.62C6.13 38.292 8.49 38 10.356 38h1.13c1.11 0 1.974.097 2.589.286.616.19.925.593.925 1.214m64 .562H18.656c0 1.294-.443 1.938-1.328 1.938-.654 0-1.039-.268-1.153-.812A8.036 8.036 0 0 1 16 39.5c0-.876.078-1.511.232-1.908.154-.393.52-.592 1.096-.592.501 0 .847.165 1.04.501.192.333.288.79.288 1.373H79v1.188m102.925-1.776c.615-.19 1.477-.286 2.586-.286h1.134c1.866 0 4.226.293 7.082.88 1.468.31 2.559.517 3.273.62-1.507.312-3.036.604-4.583.88-2.22.413-4.145.62-5.772.62h-.954c-1.11 0-2.002-.096-2.678-.285-.674-.19-1.013-.594-1.013-1.215 0-.62.308-1.025.925-1.214M116 38.874h60.343c0-.583.096-1.04.289-1.373.19-.336.539-.501 1.04-.501.576 0 .942.199 1.096.592.153.397.232 1.032.232 1.908 0 .583-.06 1.148-.176 1.688-.113.544-.499.812-1.153.812-.884 0-1.328-.644-1.328-1.938H116v-1.188"/>
    <path stroke="#000" d="M96.092 6.302a1.338 1.338 0 1 1 2.675 0 1.338 1.338 0 0 1-2.675 0zm-15.956 12.11a1.338 1.338 0 1 1 2.675 0 1.338 1.338 0 0 1-2.675 0zm31.912.062a1.338 1.338 0 1 1 2.675 0 1.338 1.338 0 0 1-2.675 0zm-28.04 1.832a1.22 1.22 0 0 0 .62-1.61l-.593-1.343h2.334v10.52H81.66a16.467 16.467 0 0 1-.533-6.286l2.881-1.28zm9.763.26v-3.102h5.557c.287 0 2.027.332 2.027 1.633 0 1.08-1.335 1.468-2.432 1.468h-5.152zM86.183 37.26a1.338 1.338 0 1 1 2.675 0 1.338 1.338 0 0 1-2.675 0zm19.818.062a1.338 1.338 0 1 1 2.675 0 1.338 1.338 0 0 1-2.675 0zm.413-3.033a1.22 1.22 0 0 0-1.448.938l-.671 3.133a16.467 16.467 0 0 1-13.733-.066l-.67-3.133a1.219 1.219 0 0 0-1.448-.938l-2.766.594a16.467 16.467 0 0 1-1.43-1.685h13.458c.152 0 .253-.028.253-.166v-4.761c0-.139-.101-.166-.253-.166H93.77V25.02h4.257c.388 0 2.077.111 2.617 2.27.17.664.54 2.824.795 3.516.253.775 1.283 2.325 2.38 2.325h6.95a16.467 16.467 0 0 1-1.526 1.765l-2.829-.608zm7.473-12.57c.095.95.107 1.907.035 2.86h-1.69c-.168 0-.236.11-.236.276v.776c0 1.827-1.03 2.224-1.933 2.325-.859.097-1.812-.36-1.93-.886-.506-2.851-1.351-3.46-2.685-4.512 1.655-1.052 3.378-2.603 3.378-4.679 0-2.241-1.537-3.653-2.584-4.346-1.47-.968-3.097-1.163-3.536-1.163H85.233a16.467 16.467 0 0 1 9.213-5.199l2.06 2.16a1.218 1.218 0 0 0 1.723.04l2.305-2.204a16.467 16.467 0 0 1 11.273 8.03l-1.578 3.562a1.223 1.223 0 0 0 .621 1.612l3.037 1.349zm3.935.058l-.054-.55 1.625-1.516c.33-.308.207-.928-.215-1.086l-2.078-.777-.162-.536 1.295-1.8c.265-.365.022-.95-.423-1.023l-2.19-.356-.264-.492.92-2.02c.19-.412-.161-.938-.614-.92l-2.223.077-.351-.426.51-2.166c.104-.44-.342-.886-.782-.783l-2.165.51-.427-.35.078-2.224c.017-.45-.51-.802-.92-.615l-2.02.921-.492-.264-.357-2.19c-.073-.445-.657-.688-1.023-.424l-1.8 1.296-.536-.163-.777-2.077c-.158-.424-.778-.546-1.085-.217l-1.516 1.626-.55-.053-1.171-1.892c-.237-.383-.871-.383-1.107 0l-1.17 1.892-.552.053-1.516-1.626c-.307-.329-.928-.207-1.085.217L91.848 3.9l-.536.163-1.8-1.296c-.366-.264-.95-.02-1.023.423l-.357 2.191-.492.264-2.02-.921c-.41-.188-.937.165-.92.615l.077 2.223-.427.351-2.165-.51c-.44-.103-.886.343-.783.783l.51 2.166-.35.426-2.223-.078c-.449-.013-.802.51-.615.92l.92 2.021-.263.492-2.19.356c-.446.073-.687.658-.424 1.023l1.296 1.8-.163.536-2.078.777c-.422.158-.545.778-.215 1.086l1.625 1.516-.054.55-1.89 1.17c-.384.238-.384.872 0 1.107l1.89 1.17.054.552-1.625 1.516c-.33.307-.207.927.215 1.085l2.078.777.163.536-1.296 1.8c-.264.367-.021.951.424 1.023l2.19.356.263.493-.92 2.02c-.188.41.166.938.615.92l2.222-.078.351.427-.51 2.166c-.103.439.343.885.783.781l2.165-.51.427.35-.077 2.224c-.017.45.51.803.92.615l2.02-.92.492.263.357 2.19c.072.446.657.687 1.023.424l1.8-1.296.536.163.777 2.076c.157.422.778.547 1.085.216l1.516-1.625.551.055 1.17 1.89c.237.382.87.383 1.107 0l1.17-1.89.552-.055 1.515 1.625c.307.33.928.206 1.086-.216l.776-2.076.537-.163 1.8 1.296c.365.263.95.02 1.022-.424l.357-2.19.492-.264 2.02.921c.41.188.937-.164.92-.615l-.077-2.223.426-.35 2.165.51c.44.103.886-.343.783-.782l-.51-2.166.35-.427 2.224.078c.448.018.803-.51.614-.92l-.92-2.02.263-.493 2.19-.356c.446-.072.688-.656.424-1.023l-1.296-1.8.163-.536 2.077-.777c.423-.158.546-.778.216-1.085l-1.625-1.516.054-.551 1.89-1.17c.384-.236.384-.87.001-1.107l-1.891-1.17z"/>
  </g>
</svg>